<svg width="749" height="212" viewBox="0 0 749 212" fill="none" xmlns="http://www.w3.org/2000/svg">
<path d="M23.5556 212C17.0778 212 11.5305 209.692 6.91357 205.075C2.29668 200.458 -0.00783185 194.914 1.99962e-05 188.444V23.5556C1.99962e-05 17.0778 2.30846 11.5305 6.92535 6.91357C11.5422 2.29668 17.0856 -0.00783185 23.5556 1.99962e-05H188.444C194.922 1.99962e-05 200.47 2.30846 205.086 6.92535C209.703 11.5422 212.008 17.0856 212 23.5556V188.444C212 194.922 209.692 200.47 205.075 205.086C200.458 209.703 194.914 212.008 188.444 212H23.5556ZM188.444 50.0556L117.189 130.144L78.9111 91.8667C76.5556 89.5111 73.8074 88.3333 70.6667 88.3333C67.5259 88.3333 64.7778 89.5111 62.4222 91.8667L23.5556 130.733V164.3L70.6667 117.189L109.533 156.056C111.889 158.411 114.786 159.542 118.225 159.448C121.664 159.353 124.46 158.026 126.611 155.467L188.444 85.3889V50.0556Z" fill="#081828"/>
<path d="M259.952 72.608H276.368V127.328H297.872V140H259.952V72.608ZM346.982 72.608V85.76H322.118V99.392H344.102V112.064H322.118V126.848H346.982V140H305.702V72.608H346.982ZM357.64 72.608H374.056V127.328H395.56V140H357.64V72.608ZM449.374 140L445.342 128.096H420.19L416.158 140H398.974L423.358 72.608H442.366L466.75 140H449.374ZM441.118 115.424L432.766 90.752L424.51 115.424H441.118ZM518.043 72.608H534.459V140H518.043L490.587 98.432V140H474.171V72.608H490.587L518.043 114.368V72.608ZM577.846 71.84C593.974 71.84 605.686 80.096 609.238 93.92H591.094C588.598 89.408 583.99 87.008 577.846 87.008C567.286 87.008 560.278 94.496 560.278 106.208C560.278 118.688 567.382 125.984 579.19 125.984C587.35 125.984 593.014 121.664 595.51 114.08H574.678V101.984H610.39V117.248C606.934 128.864 595.702 140.48 577.942 140.48C557.782 140.48 543.574 126.368 543.574 106.208C543.574 86.048 557.686 71.84 577.846 71.84ZM658.555 140L635.899 110.24V140H619.483V72.608H635.899V102.176L658.363 72.608H677.659L651.547 105.632L678.619 140H658.555ZM686.133 112.832V72.608H702.549V112.928C702.549 120.896 706.485 125.504 714.261 125.504C722.037 125.504 726.165 120.896 726.165 112.928V72.608H742.581V112.832C742.581 131.456 729.525 140.672 713.973 140.672C698.325 140.672 686.133 131.456 686.133 112.832Z" fill="#081828"/>
</svg>
